<svg width="329" height="70" viewBox="0 0 329 70" fill="none" xmlns="http://www.w3.org/2000/svg">
<path d="M43.1917 17.8287V16.1736C43.1917 11.6336 38.7384 10.3095 28.7785 10.3095C18.8186 10.3095 14.3653 11.6336 14.3653 16.1736V17.8287C14.3653 23.0781 18.8186 23.8347 28.7785 23.8347C38.7384 23.8347 43.1917 23.0781 43.1917 17.8287ZM0 17.0721C0 3.736 10.4867 0 28.7785 0C47.0703 0 57.557 3.736 57.557 17.0721C57.557 30.5501 47.0703 34.1442 28.7785 34.1442C10.4867 34.1442 0 30.5501 0 17.0721Z" fill="white"/>
<path d="M77.5147 11.6336H59.5102V0.756657H109.885V11.6336H91.88V33.3875H77.5147V11.6336Z" fill="white"/>
<path d="M114.182 0.756657H163.264V33.3875H148.898V11.6336H128.547V33.3875H114.182V0.756657Z" fill="white"/>
<path d="M165.758 0.756657H182.326L195.733 15.6534L207.561 0.756657H222.022L196.164 33.3875H181.703L187.976 25.4426L165.758 0.756657Z" fill="white"/>
<path d="M218.987 17.3085C218.987 4.06704 229.282 0 245.85 0C261.508 0 271.995 3.02663 272.713 13.5253H258.348C257.438 10.9242 253.128 10.3095 245.85 10.3095C238.907 10.3095 233.352 11.0188 233.352 16.5046V18.1125C233.352 23.4564 238.763 23.8347 245.85 23.8347C252.602 23.8347 257.294 23.3145 258.396 21.0918H272.761C272.043 30.7392 261.46 34.1442 245.85 34.1442C229.282 34.1442 218.987 30.3136 218.987 17.3085Z" fill="white"/>
<path d="M309.176 0.756657H327.994L307.644 16.0317L329 33.3875H309.176L295.242 22.0377H291.794V33.3875H277.429V0.756657H291.794V11.1607H295.289L309.176 0.756657Z" fill="white"/>
<path d="M30.1642 42.9649H35.8734L18.3243 55.7304L36.3716 69.5758H30.2792L14.7226 57.5816H6.90594V69.5758H2.72941V42.9649H6.90594V54.2649H14.6076L30.1642 42.9649Z" fill="white"/>
<path d="M52.3838 42.9649H57.6715L74.0328 69.5758H69.6263L64.8367 61.7468H44.912L40.1224 69.5758H35.9842L52.3838 42.9649ZM54.8744 45.5488L46.8278 58.6614H62.9209L54.8744 45.5488Z" fill="white"/>
<path d="M105.039 42.9649H110.748L93.1992 55.7304L111.246 69.5758H105.154L89.5975 57.5816H81.7808V69.5758H77.6043V42.9649H81.7808V54.2649H89.4825L105.039 42.9649Z" fill="white"/>
<path d="M124.078 42.9649H146.762C152.356 42.9649 155.23 45.2017 155.23 49.4826C155.23 52.4137 153.889 54.7277 150.862 55.6147C154.31 56.3475 156.226 58.43 156.226 61.9782C156.226 66.799 153.391 69.5758 147.758 69.5758H124.078V42.9649ZM152.088 62.2096V61.4768C152.088 58.9314 150.287 57.3888 146.647 57.3888H128.255V66.7218H146.647C150.249 66.7218 152.088 65.2178 152.088 62.2096ZM151.053 50.2154V49.5212C151.053 47.0915 149.636 45.8188 146.111 45.8188H128.255V54.5734H146.111C149.636 54.5734 151.053 52.9536 151.053 50.2154Z" fill="white"/>
<path d="M199.97 42.9649H205.68L188.131 55.7304L206.178 69.5758H200.085L184.529 57.5816H176.712V69.5758H172.536V42.9649H176.712V54.2649H184.414L199.97 42.9649Z" fill="white"/>
<path d="M238.628 47.0915L213.875 69.5758H209.431V42.9649H213.607V65.4492L238.36 42.9649H242.766V69.5758H238.628V47.0915Z" fill="white"/>
<path d="M249.992 42.9649H254.169V54.1106H278.73V42.9649H282.868V69.5758H278.73V57.4273H254.169V69.5758H249.992V42.9649Z" fill="white"/>
<path d="M324.514 57.1959V55.3062C324.514 48.5956 319.149 45.7802 308.574 45.7802C297.999 45.7802 292.673 48.557 292.673 55.3062V57.1959C292.673 63.8679 297.999 66.7604 308.574 66.7604C319.149 66.7604 324.514 63.9065 324.514 57.1959ZM288.534 56.3475C288.534 46.2816 295.47 42.5406 308.574 42.5406C321.717 42.5406 328.652 46.2816 328.652 56.3475C328.652 66.1433 321.717 70 308.574 70C295.47 70 288.534 66.1433 288.534 56.3475Z" fill="white"/>
</svg>
