<svg width="53" height="53" viewBox="0 0 53 53" fill="none" xmlns="http://www.w3.org/2000/svg">
<path d="M53 0V53H0V0H53Z" fill="#FF0032"/>
<path d="M35.3093 4.03989V6.5125H40.6361V16.1862L40.6372 16.3454H43.6194V6.5125H48.946V4.03989H35.3093Z" fill="white"/>
<path d="M16.1269 4.07825L12.2311 12.1671L8.33515 4.07825H4.08154V16.3091H7.06363V7.55574L10.8717 14.9508H13.5905L17.3996 7.55574V16.3091H20.3816V4.07825H16.1269Z" fill="white"/>
<path d="M45.9564 44.8447C45.9008 45.2965 45.695 45.7164 45.3721 46.0371C45.0368 46.3424 44.6245 46.5504 44.1797 46.6387C43.5298 46.7674 42.8682 46.8274 42.2057 46.8176C41.5004 46.8302 40.7977 46.7273 40.1256 46.5129C39.5746 46.334 39.0995 45.9756 38.776 45.4951C38.4508 45.0138 38.2904 44.319 38.2904 43.4355V42.1824C38.2904 41.2924 38.4541 40.5976 38.776 40.1163C39.0988 39.6367 39.5727 39.2788 40.1223 39.0995C40.7945 38.8852 41.4972 38.7823 42.2026 38.7949C42.865 38.785 43.5267 38.845 44.1766 38.9738C44.6212 39.0624 45.0334 39.2703 45.3689 39.5753C45.6917 39.8962 45.8974 40.3161 45.9531 40.7678H48.9374C48.8835 39.827 48.5247 38.9293 47.9152 38.2106C47.3141 37.5497 46.5362 37.0749 45.6735 36.8426C44.5421 36.5442 43.3746 36.4044 42.2047 36.4274C40.7749 36.4274 39.5348 36.6334 38.519 37.0389C37.5143 37.4257 36.6725 38.1454 36.1343 39.0778C35.6085 39.9808 35.3321 41.1863 35.3137 42.6637V42.7992V42.8057V42.9413C35.3321 44.4188 35.6085 45.6241 36.1343 46.5271C36.6725 47.4596 37.5143 48.1792 38.519 48.566C39.5359 48.9715 40.7771 49.1775 42.2047 49.1775C43.3747 49.2012 44.5422 49.0614 45.6735 48.7623C46.5366 48.5309 47.3148 48.056 47.9152 47.3943C48.5248 46.6757 48.8837 45.7779 48.9374 44.8371L45.9564 44.8447Z" fill="white"/>
</svg>
